<svg width="20" height="21" viewBox="0 0 20 21" fill="none" xmlns="http://www.w3.org/2000/svg">
<path d="M13.3 15.2L14.7 13.8L11 10.1V5.5H9V10.9L13.3 15.2ZM10 20.5C8.61667 20.5 7.31667 20.2375 6.1 19.7125C4.88333 19.1875 3.825 18.475 2.925 17.575C2.025 16.675 1.3125 15.6167 0.7875 14.4C0.2625 13.1833 0 11.8833 0 10.5C0 9.11667 0.2625 7.81667 0.7875 6.6C1.3125 5.38333 2.025 4.325 2.925 3.425C3.825 2.525 4.88333 1.8125 6.1 1.2875C7.31667 0.7625 8.61667 0.5 10 0.5C11.3833 0.5 12.6833 0.7625 13.9 1.2875C15.1167 1.8125 16.175 2.525 17.075 3.425C17.975 4.325 18.6875 5.38333 19.2125 6.6C19.7375 7.81667 20 9.11667 20 10.5C20 11.8833 19.7375 13.1833 19.2125 14.4C18.6875 15.6167 17.975 16.675 17.075 17.575C16.175 18.475 15.1167 19.1875 13.9 19.7125C12.6833 20.2375 11.3833 20.5 10 20.5ZM10 18.5C12.2167 18.5 14.1042 17.7208 15.6625 16.1625C17.2208 14.6042 18 12.7167 18 10.5C18 8.28333 17.2208 6.39583 15.6625 4.8375C14.1042 3.27917 12.2167 2.5 10 2.5C7.78333 2.5 5.89583 3.27917 4.3375 4.8375C2.77917 6.39583 2 8.28333 2 10.5C2 12.7167 2.77917 14.6042 4.3375 16.1625C5.89583 17.7208 7.78333 18.5 10 18.5Z" fill="#3976D1"/>
</svg>
